<svg width="851" height="720" viewBox="0 0 851 720" fill="none" xmlns="http://www.w3.org/2000/svg">
    <path
        d="M361.066 -86.4428C357.906 -84.4665 355.535 -81.8974 355.535 -80.7117C355.535 -79.3283 354.745 -78.1426 353.56 -78.1426C352.572 -78.1426 351.189 -74.9806 350.399 -71.2257C349.807 -67.4709 348.424 -63.716 347.436 -63.1231C346.449 -62.5303 345.659 -60.554 345.659 -58.7754C345.659 -56.9968 344.473 -53.2419 343.091 -50.4752C341.708 -47.7084 338.35 -39.8035 335.782 -32.689C333.411 -25.5745 330.448 -19.0529 329.461 -18.0648C328.671 -16.8791 327.881 -14.9028 327.881 -13.3218C327.881 -11.7408 326.695 -7.78835 325.115 -4.42874C323.732 -0.8715 320.572 6.83587 318.201 12.7646C315.831 18.6933 313.066 25.4125 312.275 27.5864C311.288 29.7603 309.115 35.4914 307.14 40.432C305.164 45.3726 302.596 51.8942 301.214 55.2538C299.831 58.4158 297.263 64.7398 295.683 69.0875C289.757 84.6998 280.078 108.81 277.312 114.936C275.732 118.296 274.547 121.853 274.547 122.841C274.547 124.818 270.201 134.699 266.448 141.616C265.46 143.592 264.67 146.161 264.67 147.544C264.67 148.928 263.485 152.287 262.102 155.054C260.719 157.821 257.954 164.342 255.978 169.876C254.003 175.212 250.645 183.71 248.472 188.65C243.139 201.496 241.756 204.46 238.003 214.341C236.225 219.282 233.46 225.803 232.077 229.163C230.694 232.325 225.756 244.775 221.213 256.83C216.472 268.688 211.533 281.138 210.151 284.498C208.768 287.66 205.805 295.17 203.632 300.703C201.262 306.434 197.114 314.932 194.348 319.477C188.225 328.963 175.385 342.797 172.224 342.797C169.064 342.797 150.693 361.769 147.138 368.686C143.187 375.998 138.249 394.377 138.249 401.096C138.249 407.815 141.409 407.223 154.051 398.725C164.718 391.61 197.706 374.417 200.867 374.417C201.657 374.219 206.003 372.638 210.348 370.464C214.694 368.291 219.435 366.71 220.818 366.512C222.2 366.512 224.768 365.721 226.744 364.733C230.892 362.362 262.695 351.69 273.559 348.923C277.905 347.738 286.399 345.366 292.325 343.588C298.251 341.809 310.3 338.647 318.992 336.671C351.189 328.963 360.671 326.592 372.326 323.825C378.844 322.244 389.906 319.675 397.017 318.094C404.128 316.513 416.178 313.944 423.684 312.165C431.388 310.387 442.45 307.818 448.376 306.434C454.302 305.051 460.623 303.47 462.203 302.679C463.783 302.086 469.709 300.703 475.043 299.715C484.327 297.936 492.031 296.158 514.549 290.427C520.08 289.043 531.537 286.474 540.229 284.498C548.92 282.719 559.982 279.755 564.723 278.372C569.661 276.791 575.192 275.605 576.97 275.605C578.945 275.605 584.476 274.419 589.019 272.838C593.76 271.455 606.007 268.293 616.279 265.921C626.551 263.55 639.588 260.388 644.921 259.004C650.452 257.423 660.527 254.854 667.638 252.878C707.342 242.602 716.824 239.835 744.676 230.744C756.133 226.989 769.367 222.246 774.306 220.072C788.133 213.748 813.812 198.334 813.812 196.357C813.812 195.369 814.8 194.579 815.788 194.579C816.973 194.579 823.096 189.441 829.417 183.117C839.689 172.84 844.628 165.133 851.146 148.532C855.689 136.873 852.134 101.695 846.405 101.695C845.22 101.695 843.245 104.067 842.06 107.031C840.677 110.193 837.319 115.134 834.356 118.494C831.59 121.656 828.232 125.806 826.85 127.387C822.899 132.722 800.775 151.102 798.405 151.102C797.022 151.102 796.034 151.892 796.034 152.683C796.034 154.264 774.503 165.923 773.516 164.738C772.33 162.959 766.602 149.323 763.441 140.232C761.466 134.699 759.096 129.561 758.108 128.375C757.318 127.387 756.528 125.41 756.528 123.829C756.528 122.248 753.96 115.332 750.602 108.217C747.441 101.3 744.676 94.9763 744.676 94.1858C744.676 92.8024 728.478 51.6966 723.935 41.4201C722.552 38.0605 719.787 31.5389 718.009 26.5983C716.033 21.6577 713.465 14.9385 711.885 11.7765C710.502 8.41686 707.935 2.68574 706.354 -1.46437C704.576 -5.41686 703.194 -9.56697 703.194 -10.7527C703.194 -11.9385 702.404 -14.5076 701.218 -16.4838C697.86 -22.6102 691.342 -38.4201 691.342 -40.594C691.342 -41.5821 690.552 -44.1512 689.366 -46.1274C688.379 -47.9061 685.811 -53.4395 683.835 -58.3801C674.749 -80.3164 672.971 -83.676 667.638 -86.6404C662.699 -89.6048 654.403 -90 597.711 -90H533.315L534.5 -81.6998C535.29 -76.9568 537.858 -64.7041 540.624 -54.4277C543.389 -44.1512 546.352 -31.8985 547.34 -27.1555C548.328 -22.4125 549.513 -17.8672 550.105 -16.8791C550.698 -15.8909 552.081 -11.3456 553.068 -6.6026C556.031 6.4406 560.377 24.0292 565.118 41.4201C567.291 50.1156 569.661 59.4039 570.254 62.1706C570.649 64.9374 572.032 68.8899 572.822 71.0637C573.809 73.2376 575.587 79.364 576.575 84.8974C578.748 95.5691 582.501 111.379 587.637 130.351C589.415 136.873 592.18 147.347 593.76 153.473C599.291 176.002 602.254 187.86 604.23 195.567C607.39 207.622 606.797 217.306 603.044 220.665C601.069 222.246 590.6 225.606 579.735 227.977C568.871 230.546 557.809 233.313 555.044 234.104C552.278 235.092 545.76 236.475 540.229 237.266C534.895 238.056 528.179 239.44 525.414 240.428C522.648 241.416 516.525 242.997 511.586 243.985C506.648 244.775 496.574 246.949 488.87 248.728C481.364 250.507 467.141 253.669 457.265 255.842C447.586 257.819 433.363 260.981 425.66 262.759C418.153 264.34 411.24 265.724 410.449 265.724C407.684 265.724 408.672 258.807 414.005 238.847C416.968 227.977 419.931 216.12 420.721 212.365C423.289 200.112 427.042 185.883 428.82 181.733C429.61 179.559 431.388 173.235 432.573 167.9C433.758 162.366 436.129 152.683 437.709 146.161C439.289 139.639 441.857 129.363 443.438 123.434C444.82 117.505 447.586 107.229 449.364 100.707C452.327 89.4428 453.709 83.9093 460.82 55.2538C462.401 48.7322 465.166 38.0605 466.944 31.5389C468.722 25.0173 471.487 14.3456 473.265 7.82399C474.845 1.30239 477.413 -9.36934 478.993 -15.8909C480.771 -22.4125 482.747 -30.9104 483.734 -34.6652C484.722 -38.4201 487.685 -50.0799 490.648 -60.7516C493.413 -71.2257 495.784 -82.095 495.784 -84.8618V-90L431.19 -89.8024C374.498 -89.6048 365.807 -89.2095 361.066 -86.4428Z"
        fill="url(#paint0_linear_5_28)" fill-opacity="0.15" />
    <path
        d="M886.109 165.726C884.331 168.492 882.949 171.062 882.949 171.654C882.949 173.235 870.504 191.417 865.763 196.555C854.899 208.61 851.738 211.772 843.442 218.491C834.553 225.606 820.923 234.697 812.034 239.44C794.651 248.926 779.836 255.842 777.268 255.842C776.478 255.842 773.12 257.028 769.762 258.609C766.207 260.19 753.169 264.735 740.725 268.688C728.28 272.64 716.626 276.593 715.045 277.581C713.268 278.372 708.922 279.755 705.169 280.348C701.416 281.138 694.7 282.917 690.354 284.498C683.045 286.869 673.959 289.438 646.896 296.355C624.378 302.086 609.76 305.446 578.748 312.363C571.636 313.944 560.574 316.513 554.056 317.896C547.537 319.477 535.488 322.046 527.389 324.023C502.895 329.359 489.66 332.323 475.043 335.88C467.536 337.461 455.289 340.228 448.178 341.809C440.869 343.39 433.561 345.169 431.98 345.959C430.203 346.552 423.684 348.33 417.363 349.714C394.054 355.05 355.14 364.536 318.991 373.626C312.473 375.405 302.201 377.974 296.275 379.357C290.349 380.938 278.3 384.1 269.608 386.274C260.917 388.646 250.645 391.413 246.892 392.203C243.139 393.191 233.855 395.76 226.151 398.132C218.645 400.503 209.756 403.072 206.398 403.863C183.484 410.187 154.446 422.044 142.594 429.949C137.853 433.111 133.705 435.68 133.31 435.68C129.36 435.68 96.9641 467.893 90.4455 478.17C79.3837 495.956 75.6305 520.264 82.1491 533.109C86.6924 541.805 86.2973 541.805 92.4209 535.283C104.668 522.24 144.372 494.572 154.644 492.003C157.607 491.213 159.977 489.829 159.977 488.841C159.977 487.853 161.162 487.063 162.545 487.063C163.73 487.063 167.681 485.679 170.842 483.901C182.694 477.577 209.953 468.881 255.781 456.431C261.312 455.048 270.596 452.478 276.522 450.897C282.448 449.119 294.102 446.352 302.201 444.376C310.3 442.597 318.794 440.226 320.967 439.435C323.14 438.447 330.646 436.471 337.757 434.89C344.868 433.309 356.325 430.74 363.436 428.961C370.548 427.183 379.832 424.811 384.177 423.823C388.523 422.835 399.19 420.266 407.881 417.894C416.573 415.523 429.017 412.361 435.536 410.977C455.882 406.234 468.919 402.875 472.08 401.491C473.66 400.899 479.586 399.318 484.919 398.329C490.45 397.144 500.129 394.97 506.648 393.191C513.167 391.61 523.833 389.041 530.352 387.46C536.871 386.077 545.957 383.903 550.698 382.519C555.241 381.334 562.747 379.357 567.488 378.172C572.031 376.788 580.723 374.812 586.649 373.231C592.575 371.848 603.242 369.279 610.353 367.5C617.464 365.721 628.131 363.152 634.057 361.769C639.983 360.386 646.304 358.805 647.884 358.014C649.464 357.421 655.39 355.84 660.724 354.654C666.255 353.469 675.934 351.097 682.452 349.319C688.971 347.738 699.243 345.169 705.169 343.588C741.515 334.497 738.354 335.485 773.318 323.825C791.688 317.699 825.664 302.086 832.578 296.751C833.763 295.96 840.281 291.019 847.393 285.684C874.257 265.526 889.665 242.997 896.578 213.748C899.541 201.298 899.344 181.536 896.183 172.247C892.233 161.378 890.06 159.797 886.109 165.726Z"
        fill="url(#paint1_linear_5_28)" fill-opacity="0.15" />
    <path
        d="M929.369 242.206C924.233 258.411 900.727 287.857 878.998 305.446C863.195 318.292 818.948 342.797 811.837 342.797C810.652 342.797 808.281 343.587 806.306 344.773C801.96 347.145 763.639 359.793 754.552 361.571C750.799 362.362 746.849 363.745 745.663 364.536C744.676 365.326 739.935 366.71 735.392 367.5C730.651 368.29 726.503 369.476 725.91 370.464C725.317 371.255 720.774 372.638 715.638 373.429C710.305 374.219 705.367 375.405 704.181 376.393C703.194 377.184 698.255 378.765 693.317 379.95C680.082 383.112 667.835 386.077 656.773 389.239C638.403 394.377 629.119 396.748 622.205 398.132C618.452 399.12 608.18 401.689 599.489 404.06C590.797 406.234 578.748 409.396 572.822 410.977C566.896 412.361 556.426 415.127 549.71 416.708C512.377 426.194 504.87 427.973 476.426 434.495C469.512 436.076 462.401 437.854 460.623 438.645C458.845 439.435 453.314 440.819 448.376 441.609C431.981 444.969 413.807 448.921 405.906 451.095C401.56 452.478 387.338 455.838 374.301 458.605C361.264 461.569 345.263 465.126 338.745 466.51C322.35 470.265 286.003 479.158 268.621 483.901C243.534 490.818 225.953 496.351 209.361 502.873C203.435 505.244 196.126 507.813 192.965 508.801C188.225 510.382 175.385 516.113 159.977 523.426C116.52 544.571 78.9887 572.436 59.0378 598.72C49.7537 610.973 37.5067 634.688 37.5067 640.221C37.5067 642.593 36.519 645.36 35.3338 646.545C33.9511 647.929 32.5683 658.798 31.9757 672.632C31.1856 693.185 31.3831 696.544 33.9511 696.544C35.7289 696.544 38.4943 694.37 40.0746 691.999C41.8524 689.43 46.0006 684.094 49.7537 680.339C53.3093 676.387 59.0378 670.26 62.1983 666.505C67.9268 659.984 106.643 629.352 112.569 626.783C114.15 625.992 118.298 623.621 121.458 621.447C124.816 619.471 131.335 615.518 136.273 612.949C141.212 610.38 146.94 607.218 149.113 606.032C151.286 604.847 157.607 601.882 162.94 599.708C168.471 597.337 175.582 594.175 179.138 592.594C182.496 591.013 186.447 589.827 188.027 589.827C189.607 589.827 191.583 589.037 192.57 588.049C193.755 586.863 198.101 585.282 202.447 584.096C206.793 582.91 215.287 580.737 221.213 578.958C227.139 577.179 238.793 574.017 246.892 571.843C254.991 569.67 266.25 566.705 271.584 565.124C299.238 557.615 305.954 555.836 316.029 553.267C321.954 551.686 331.831 549.117 337.757 547.536C343.683 545.955 352.572 543.583 357.51 542.397C362.449 541.212 370.943 539.038 376.276 537.457C381.807 535.876 391.091 533.307 397.017 531.923C425.659 524.414 434.351 522.042 442.845 519.473C447.981 517.892 453.314 516.706 454.894 516.706C456.277 516.706 463.783 514.928 471.29 512.556C478.796 510.382 489.463 507.418 494.796 505.837C516.525 500.106 546.155 492.003 560.97 487.656C566.896 486.075 576.377 483.505 581.711 481.924C602.847 476.193 613.909 473.031 631.094 468.091C664.872 458.407 690.354 451.095 700.231 448.526C705.762 447.143 712.873 444.969 716.033 443.981C719.391 442.992 727.293 440.423 733.811 438.645C740.33 436.668 753.17 432.716 762.454 429.752C771.738 426.787 785.96 422.44 794.059 420.068C802.158 417.499 810.652 414.93 812.825 413.942C814.997 413.151 823.096 410.384 830.603 408.013C845.813 403.468 847.393 402.875 863.195 395.365C881.961 386.472 893.616 378.172 907.641 363.35C920.48 349.714 920.48 349.911 927.789 334.892C935.098 320.268 938.061 310.189 940.233 290.427C941.814 276 940.826 254.261 938.258 250.902C937.468 249.716 936.283 246.554 935.493 243.392C933.912 237.068 931.147 236.475 929.369 242.206Z"
        fill="url(#paint2_linear_5_28)" fill-opacity="0.15" />
    <path
        d="M847.393 436.866C833.763 441.609 804.133 451.885 781.219 459.593C758.503 467.3 738.354 474.019 736.774 474.612C735.194 475.205 722.947 479.553 709.515 484.098C696.082 488.644 684.23 493.387 683.045 494.572C681.86 495.758 681.662 497.734 683.045 500.106C684.033 502.28 685.613 507.813 686.403 512.754C687.193 517.497 688.576 522.833 689.564 524.611C691.144 527.773 694.305 539.631 697.465 554.057C698.453 558.998 700.033 565.717 701.021 568.879C702.008 572.239 704.181 579.946 705.762 585.875C707.539 591.803 710.305 601.487 711.885 607.416C713.663 613.147 715.046 619.273 715.046 621.052C715.046 622.633 716.428 628.759 718.009 634.688C719.589 640.419 722.354 649.905 723.935 655.636C725.515 661.565 726.898 668.284 726.898 670.656C726.898 672.829 727.688 676.387 728.873 678.363C729.861 680.141 731.638 686.07 732.824 691.604C735.391 702.868 739.145 718.085 743.688 735.081C745.466 741.603 747.836 750.496 748.824 754.843C755.342 781.72 758.898 784.092 800.973 788.637C829.22 791.602 863.393 795.752 893.813 800.099C950.703 808.4 985.469 813.735 1002.46 816.897C1017.47 819.862 1033.07 821.64 1033.07 820.257C1033.07 819.664 1031.69 815.909 1029.91 811.759C1028.14 807.609 1025.96 802.471 1024.98 800.297C1024.18 798.123 1021.62 792.194 1019.44 787.056C1017.07 781.918 1015.3 776.977 1015.3 775.989C1015.3 775.001 1013.91 771.444 1012.33 768.479C1010.75 765.318 1009.37 761.167 1009.37 759.191C1009.37 757.413 1008.78 755.832 1007.79 755.832C1006.41 755.832 1003.05 747.531 999.098 733.5C997.913 729.548 996.333 726.188 995.345 726.188C994.357 726.188 993.567 724.805 993.567 723.026C993.567 721.247 992.382 717.097 990.802 713.738C989.419 710.18 986.259 702.473 983.888 696.544C981.518 690.616 978.752 683.896 977.962 681.722C976.975 679.549 974.802 673.817 972.826 668.877C970.851 663.936 968.283 657.217 966.9 654.055C965.518 650.695 962.752 644.174 960.974 639.233C958.999 634.293 956.431 627.573 955.048 624.411C953.666 621.052 950.9 613.937 949.122 608.602C947.147 603.068 944.974 597.732 944.184 596.744C943.394 595.558 940.826 589.037 938.258 581.922C935.69 574.808 933.122 568.089 932.332 567.1C931.542 565.915 928.184 557.022 924.431 547.338C918.702 531.726 916.134 525.006 908.628 507.813C907.838 505.639 902.9 493.189 897.764 480.146C878.01 429.159 877.418 427.775 874.455 427.973C873.072 428.171 861.023 432.123 847.393 436.866Z"
        fill="url(#paint3_linear_5_28)" fill-opacity="0.15" />
    <path
        d="M307.139 586.863C302.794 588.444 293.905 591.013 287.386 592.792C254.793 602.08 211.731 615.519 204.027 618.681C200.669 620.262 196.521 621.447 194.941 621.447C193.163 621.447 191.385 622.238 190.792 623.226C190.2 624.214 187.237 625.597 184.274 626.19C181.113 626.981 176.175 628.759 172.817 630.143C169.656 631.724 164.718 633.7 161.953 634.886C149.113 640.024 120.668 654.451 113.162 659.391C108.619 662.355 104.075 664.925 102.89 664.925C101.705 664.925 100.717 665.715 100.717 666.506C100.717 667.494 98.9395 669.075 96.9642 670.063C85.9023 675.399 52.7167 707.216 42.0499 723.026C39.0869 727.374 35.9264 731.326 35.1363 731.722C34.1486 732.117 33.556 733.303 33.556 734.488C33.556 735.674 30.9881 740.812 28.0251 745.753C25.0621 750.694 20.5188 759.784 17.9509 765.713C15.5805 771.642 12.815 778.361 12.0249 780.535C9.0619 787.254 4.3211 802.076 2.93837 808.202C2.34577 811.364 1.3581 815.712 0.765504 817.688C-0.222162 820.85 0.567971 821.048 10.2471 819.862C15.9756 819.269 24.272 817.886 28.6177 816.898C59.0378 809.981 153.656 796.542 230.102 788.44C273.164 783.894 275.139 782.709 281.658 755.832C283.04 749.903 285.608 739.627 287.386 733.105C288.966 726.583 291.732 716.307 293.312 710.378C294.695 704.449 297.263 694.173 299.041 687.651C300.621 681.13 302.991 671.249 304.177 665.913C305.362 660.379 307.139 654.451 308.127 652.672C309.312 650.696 310.103 647.731 310.103 645.953C310.103 643.976 311.288 638.048 312.868 632.514C316.029 621.645 320.967 600.894 322.942 590.223C324.127 584.492 323.732 583.899 319.584 584.096C317.016 584.294 311.485 585.48 307.139 586.863Z"
        fill="url(#paint4_linear_5_28)" fill-opacity="0.15" />
    <defs>
        <linearGradient id="paint0_linear_5_28" x1="495.731" y1="405.671" x2="495.731" y2="-90"
            gradientUnits="userSpaceOnUse">
            <stop stop-color="white" />
            <stop offset="1" stop-color="white" stop-opacity="0" />
        </linearGradient>
        <linearGradient id="paint1_linear_5_28" x1="488.814" y1="539.932" x2="488.814" y2="162.318"
            gradientUnits="userSpaceOnUse">
            <stop stop-color="white" />
            <stop offset="1" stop-color="white" stop-opacity="0" />
        </linearGradient>
        <linearGradient id="paint2_linear_5_28" x1="486.28" y1="696.544" x2="486.28" y2="238.254"
            gradientUnits="userSpaceOnUse">
            <stop stop-color="white" />
            <stop offset="1" stop-color="white" stop-opacity="0" />
        </linearGradient>
        <linearGradient id="paint3_linear_5_28" x1="857.577" y1="820.734" x2="857.577" y2="427.96"
            gradientUnits="userSpaceOnUse">
            <stop stop-color="white" />
            <stop offset="1" stop-color="white" stop-opacity="0" />
        </linearGradient>
        <linearGradient id="paint4_linear_5_28" x1="161.984" y1="820.531" x2="161.984" y2="584.065"
            gradientUnits="userSpaceOnUse">
            <stop stop-color="white" />
            <stop offset="1" stop-color="white" stop-opacity="0" />
        </linearGradient>
    </defs>
</svg>